<?xml version="1.0" encoding="utf-8"?>
<!-- Generator: Adobe Illustrator 24.2.0, SVG Export Plug-In . SVG Version: 6.00 Build 0)  -->
<svg version="1.1" xmlns="http://www.w3.org/2000/svg" xmlns:xlink="http://www.w3.org/1999/xlink" x="0px" y="0px"
	 viewBox="0 0 47 47" style="enable-background:new 0 0 47 47;" xml:space="preserve">
<style type="text/css">
	.st0{fill:#0C8FB9;}
	.st1{fill:#FFFFFF;}
</style>
<g id="Ebene_1">
	<circle class="st0" cx="23.5" cy="23.47" r="23.5"/>
</g>
<g id="Ebene_2">
	<g id="z2yZm7_2_">
		<g>
			<path class="st1" d="M25.43,39.23c-2.37,0-4.74,0-7.11,0.01c-0.31,0-0.47-0.09-0.51-0.41c-0.09-0.76-0.19-1.52-0.29-2.28
				c-0.01-0.09,0-0.18-0.01-0.27c-0.1-0.87-0.53-1.2-1.39-1.1c-0.82,0.1-1.64,0.22-2.46,0.32c-0.66,0.08-1.29-0.03-1.89-0.28
				c-0.63-0.27-1.1-0.99-1.02-1.74c0.05-0.52,0.2-1.04,0.38-1.54c0.16-0.44,0.15-0.7-0.22-1.02c-0.13-0.11-0.27-0.22-0.38-0.34
				c-0.27-0.3-0.26-0.42,0.07-0.68c0.06-0.05,0.14-0.08,0.2-0.14c0.12-0.13,0.14-0.24-0.06-0.31c-0.1-0.04-0.21-0.08-0.3-0.14
				c-0.35-0.22-0.41-0.45-0.23-0.82c0.36-0.76,0.13-1.29-0.66-1.55c-0.18-0.06-0.37-0.12-0.54-0.2c-0.64-0.3-0.79-0.61-0.42-1.23
				c0.59-1.01,1.21-2,1.82-2.99c0.27-0.43,0.57-0.83,0.82-1.26c0.06-0.1,0.06-0.31,0-0.4c-0.48-0.62-0.49-1.29-0.28-2.01
				c0.27-0.95,0.49-1.91,0.8-2.84c0.85-2.53,2.21-4.71,4.47-6.23c1.55-1.04,3.24-1.66,5.07-1.99c1.64-0.3,3.27-0.29,4.9-0.08
				c0.91,0.12,1.82,0.28,2.7,0.52c1.45,0.39,2.77,1.07,3.95,2.02c1.26,1.01,2.27,2.23,2.98,3.68c0.33,0.66,0.54,1.38,0.78,2.08
				c0.52,1.47,0.37,2.99,0.32,4.5c-0.04,1.06-0.38,2.07-0.78,3.05c-0.69,1.7-1.75,3.14-2.96,4.49c-0.77,0.86-1.15,1.89-1.33,3.02
				c-0.21,1.32-0.28,2.65-0.11,3.98c0.17,1.3,0.47,2.57,1.18,3.71c0.06,0.1,0.1,0.28,0.05,0.36c-0.05,0.08-0.22,0.12-0.34,0.12
				c-2.07,0.01-4.14,0-6.21,0C26.09,39.23,25.76,39.23,25.43,39.23C25.43,39.23,25.43,39.23,25.43,39.23z M32.81,21.56
				c0.05-0.02,0.1-0.05,0.16-0.06c0.43-0.08,0.79-0.3,1.02-0.65c0.23-0.37,0.45-0.77,0.55-1.19c0.24-1.03,0.22-2.03-0.66-2.81
				c-0.05-0.04-0.06-0.18-0.03-0.25c0.15-0.36,0.11-0.5-0.14-0.79c-0.08-0.09-0.16-0.25-0.13-0.35c0.18-0.69-0.18-1.4-0.89-1.63
				c-0.18-0.06-0.24-0.15-0.22-0.33c0.08-0.86-0.74-1.72-1.72-1.55c-0.21,0.04-0.33-0.02-0.46-0.19c-0.33-0.43-0.75-0.54-1.26-0.36
				c-0.19,0.07-0.28,0.04-0.37-0.16c-0.3-0.69-1.16-1.04-1.83-0.69c-0.34,0.18-0.54,0.05-0.78-0.12c-0.08-0.06-0.16-0.13-0.24-0.19
				c-0.65-0.51-1.57-0.49-2.15,0.1c-0.3,0.31-0.59,0.31-0.92,0.14c-0.87-0.44-1.92-0.09-2.35,0.71c-0.11,0.2-0.23,0.18-0.42,0.13
				c-0.41-0.1-0.85-0.23-1.26-0.2c-0.99,0.08-1.67,0.64-2.04,1.56c-0.08,0.21-0.19,0.36-0.4,0.45c-0.29,0.13-0.49,0.37-0.52,0.66
				c-0.04,0.4-0.3,0.53-0.6,0.66c-0.68,0.29-1.08,0.82-1.24,1.53c-0.22,1.02,0.22,1.93,1.13,2.45c0.12,0.07,0.26,0.23,0.26,0.35
				c-0.01,0.99,0.43,1.73,1.22,2.3c0.79,0.57,2.21,0.54,2.95-0.09c0.08-0.07,0.18-0.11,0.33-0.21c-0.04,0.28-0.09,0.47-0.09,0.67
				c-0.01,1.74,1.63,2.97,3.28,2.42c0.4-0.13,0.59-0.01,0.79,0.25c0.16,0.21,0.32,0.43,0.4,0.67c0.31,0.84,0.58,1.69,0.87,2.54
				c0.09,0.28,0.33,0.44,0.66,0.41c0.22-0.02,0.41-0.1,0.46-0.36c0.06-0.34,0.12-0.67,0.2-1.01c0.05-0.21,0.12-0.41,0.21-0.7
				c0.14,0.16,0.23,0.26,0.31,0.37c0.42,0.59,1.45,0.93,2.08,0.67c0.79-0.32,1.28-0.92,1.52-1.73c0.05-0.16,0.07-0.33,0.11-0.5
				c0.16,0.04,0.31,0.08,0.47,0.12c0.06,0.01,0.12,0.02,0.18,0.02c0.38-0.05,0.76-0.07,1.13-0.17c0.96-0.24,1.16-1.16,0.88-1.95
				C33.14,22.19,32.97,21.89,32.81,21.56z"/>
			<path class="st1" d="M25.1,19.36c-0.76,0-0.9-0.21-0.67-0.96c0.19-0.62,0.6-1.05,1.1-1.43c0.6-0.46,0.75-0.92,0.49-1.55
				c-0.06-0.15-0.21-0.32-0.36-0.37c-0.67-0.22-1.39-0.02-1.54,0.82c-0.09,0.5-0.09,0.5-0.59,0.5c-0.27,0-0.54,0.01-0.82,0
				c-0.17,0-0.3-0.08-0.27-0.28c0.16-1.02,0.61-1.84,1.61-2.24c1.17-0.47,2.94-0.17,3.6,1.13c0.43,0.84,0.16,1.98-0.64,2.59
				c-0.32,0.24-0.64,0.49-0.91,0.79c-0.14,0.16-0.23,0.41-0.24,0.63c-0.01,0.32-0.15,0.41-0.43,0.39
				C25.32,19.36,25.21,19.36,25.1,19.36z"/>
			<path class="st1" d="M25.93,20.85c0,0.14-0.01,0.28,0,0.42c0.03,0.41,0,0.44-0.42,0.44c-0.33,0-0.66,0-1,0
				c-0.23,0-0.34-0.08-0.33-0.32c0.01-0.36,0-0.72,0-1.09c0-0.2,0.08-0.31,0.28-0.31c0.4,0,0.81,0,1.21,0c0.2,0,0.28,0.11,0.27,0.31
				C25.93,20.48,25.94,20.66,25.93,20.85C25.94,20.85,25.93,20.85,25.93,20.85z"/>
		</g>
	</g>
</g>
</svg>
