<svg xmlns="http://www.w3.org/2000/svg" viewBox="0 0 110 16" fill-rule="evenodd" stroke-linejoin="round" stroke-miterlimit="2" xmlns:v="https://vecta.io/nano"><path d="M1.932 1.437h2.157l2.378 6.694-2.466 6.737H1.932l2.554-6.715-2.554-6.716zm4.271 0h2.158l2.378 6.694-2.466 6.737h-2.07l2.554-6.715-2.554-6.716zm4.184 0h2.158l2.378 6.694-2.466 6.737h-2.07l2.554-6.715-2.554-6.716zm4.271 0h2.158l2.378 6.694-2.466 6.737h-2.07l2.555-6.715-2.555-6.716z" fill="#ed1c24" fill-rule="nonzero"/><path d="M28.666 14.981c1.584 0 2.972-.391 3.931-.978V7.805h-4.263l.078.939h3.129v4.712c-.665.371-1.604.645-2.757.645-3.05 0-4.282-1.72-4.282-6.218 0-4.282 1.251-6.041 4.106-6.041 1.329 0 2.209.43 3.011 1.192l.626-.801c-.763-.704-1.917-1.31-3.637-1.31-3.383 0-5.279 2.424-5.279 7.058 0 4.732 1.955 7 5.337 7zm7.293-5.924c.098-2.562 1.252-3.715 2.738-3.715 1.603 0 2.483.86 2.502 3.715h-5.24zm3.011 5.924c1.271 0 2.288-.469 3.129-1.193l-.528-.664c-.665.508-1.388 1.016-2.483 1.016-2.014 0-3.07-1.153-3.148-4.243h6.413v-.371c0-3.598-1.427-5.025-3.617-5.025-2.444 0-3.911 2.151-3.911 5.24 0 3.109 1.428 5.24 4.145 5.24zm8.193 0c2.053 0 3.422-1.271 3.422-3.05 0-1.76-1.212-2.503-2.894-2.796l-.548-.098c-1.368-.254-1.857-.684-1.857-1.779 0-1.173.763-1.936 2.151-1.936a3.65 3.65 0 0 1 2.327.841l.469-.802c-.743-.567-1.721-.86-2.738-.86-2.013 0-3.226 1.095-3.226 2.776 0 1.74 1.076 2.405 2.679 2.699l.547.097c1.584.274 2.073.9 2.073 1.877 0 1.271-.938 2.21-2.327 2.21-1.095 0-2.053-.372-2.933-1.056l-.469.821c.88.704 2.092 1.056 3.324 1.056zm8.153-.039c1.134 0 2.21-.548 3.187-1.584 0 .821.098 1.232.215 1.525l.822-.176V4.579l-1.056.156v7.821c-.802.919-2.034 1.447-2.933 1.447-1.212 0-1.74-.567-1.74-2.15V4.579l-1.056.156v7.489c0 1.74 1.017 2.718 2.561 2.718zm7.02-.176h1.056v-7.88c.801-.919 2.033-1.447 2.932-1.447 1.213 0 1.741.567 1.741 2.151v7.176h1.056V7.219c0-1.741-1.017-2.718-2.562-2.718-1.134 0-2.209.547-3.187 1.584 0-.822-.098-1.232-.215-1.526l-.821.176v10.031zm12.631-.704c-1.858 0-2.581-1.349-2.581-4.419 0-3.089.977-4.301 2.776-4.301.939 0 1.877.449 2.581 1.349v5.905c-.762.977-1.701 1.466-2.776 1.466zm-.137.919c1.134 0 2.151-.606 2.933-1.564.019.586.098 1.232.156 1.349h.88V.864L77.743.688v5.045a3.8 3.8 0 0 0-2.757-1.232c-1.857 0-3.734 1.408-3.734 5.259 0 3.442 1.368 5.221 3.578 5.221zm6.765-.215h1.056v-7.88c.802-.919 2.033-1.447 2.933-1.447 1.212 0 1.74.567 1.74 2.151v7.176h1.056V7.219c0-1.741-1.017-2.718-2.561-2.718-1.135 0-2.19.547-3.168 1.584V2.976c0-1.467-.117-2.19-.156-2.288l-.9.176v13.902zm10.051-5.709c.097-2.562 1.251-3.715 2.737-3.715 1.603 0 2.483.86 2.503 3.715h-5.24zm3.011 5.924c1.271 0 2.287-.469 3.128-1.193l-.528-.664c-.665.508-1.388 1.016-2.483 1.016-2.014 0-3.07-1.153-3.148-4.243h6.413v-.371c0-3.598-1.427-5.025-3.617-5.025-2.444 0-3.911 2.151-3.911 5.24 0 3.109 1.428 5.24 4.146 5.24zm6.198-12.279c.41 0 .743-.332.743-.743a.73.73 0 0 0-.743-.743.743.743 0 1 0 0 1.486zm-.548 12.064h1.056V4.501l-1.056.176v10.089zm6.472.215c.548 0 1.036-.117 1.467-.332l-.235-.822c-.274.137-.645.274-1.115.274-.879 0-1.192-.391-1.192-1.564V5.498h2.346l.098-.821h-2.444V1.9l-.841.235c-.059.274-.196 1.447-.196 2.542h-1.29v.821h1.29v7.254c0 1.525.665 2.229 2.112 2.229z" fill-rule="nonzero" fill="#231f20"/></svg>