<svg xmlns="http://www.w3.org/2000/svg" viewBox="0 0 258.94 61.5"><defs><style>.cls-1{fill:#7db82a;fill-rule:evenodd;}.cls-2{fill:#0095c8;}</style></defs><title>Zeichenfläche 1</title><path class="cls-1" d="M201.09,34h-16a1.57,1.57,0,0,0-1,.48,1.42,1.42,0,0,0-.5,1l0,11.79a2.11,2.11,0,0,0,.44.87,1.56,1.56,0,0,0,1.13.51l11.29,0V59.82a1.82,1.82,0,0,0,.48,1.18,1.42,1.42,0,0,0,.93.5h11.78a1.41,1.41,0,0,0,1-.47,1.52,1.52,0,0,0,.49-1V48.66l11.31,0a2,2,0,0,0,1.09-.49,1.48,1.48,0,0,0,.47-1.07V35.57a1.5,1.5,0,0,0-.52-1.08,1.55,1.55,0,0,0-1-.47H211.08V22.62a1.75,1.75,0,0,0-.63-1.07,1.23,1.23,0,0,0-.95-.42h-16s-1.23-7.39,3.16-11.26c4.21-3.72,7.08-4.11,9.38-4.11s7.17-.24,11.2,5.88c3.24,4.91,3.91,9.12,6.06,9.12,2.39,0,3.56-6,6.53-9.75,1.83-2.28,4.45-5.25,10.08-5.25a13.91,13.91,0,0,1,10.23,4.35c2,2.23,3.65,5,3,10.65-.54,4.75-3.39,9.74-8.38,15.26-8.27,9.13-21.47,17.1-21.47,17.1l-2.69-1.47-4.14,3.52,6.83,4.25s14.76-8.34,24.16-18.37c6-6.41,10.33-12.79,11.29-20.3a17.78,17.78,0,0,0-7.45-17.19,20.07,20.07,0,0,0-18-2.39c-6.25,2.18-10,9.52-10,9.52s-3.37-6.79-9.26-9.25a20,20,0,0,0-19.44,2.62,17.51,17.51,0,0,0-6.77,12.26c-.43,6.23,1.2,9.49,1.2,9.49h17.39V38.68h12.86V44H206.43V56.88h-5.34V44H188.22V38.68h12.87Z"/><path class="cls-2" d="M52.13,22.1c-4.93,0-7.55,3.67-9.28,6.55h-.11a56.88,56.88,0,0,0,1.11-5.87H37.29L32.68,48.32h6.76l.37-2.1c2.51-14.37,6.24-18.14,9-18.14,1.67,0,2.2,1.2,1.72,4L47.67,48.32h6.77l3-16.52c1.15-6.24-.84-9.7-5.3-9.7"/><path class="cls-2" d="M93.07,22.24c-4.36,0-7,2.83-9.13,6.18h-.1c0-3.51-1.42-6.18-5.35-6.18-4.77,0-7.29,3.56-9,6.5h-.1a44.33,44.33,0,0,0,1.1-5.82H63.91L59.3,48.45h6.76l.37-2.09c2.52-14.21,6-18.15,8.7-18.15,2,0,2.21,1.89,1.73,4.41L74,48.45h6.77l.36-2.09C83.57,32.25,87,28.21,89.87,28.21c1.94,0,2.15,1.73,1.68,4.41L88.66,48.45h6.71l2.94-16.2c1.21-6.76-.89-10-5.24-10"/><path class="cls-2" d="M112,43.58c-2.62,0-3.93-1.52-4-4.67,8.55-1,15.63-3.72,15.63-10.07,0-4.19-2.94-6.6-7.81-6.6-8.18,0-14.68,7.07-14.68,16.62,0,6,3.35,10.22,9.8,10.22,5.63,0,10.57-2.1,12.84-4l-2.09-4.68A16.43,16.43,0,0,1,112,43.58m2.62-16c1.63,0,2.42.68,2.42,2.1,0,2.73-3.41,4.25-8.71,4.93,1-4.83,3.88-7,6.29-7"/><path class="cls-2" d="M146.59,12.22l-1.82,10.33a13.48,13.48,0,0,0-3.36-.31c-8.92,0-15.47,7.29-15.47,18.19,0,5.19,2.57,8.65,6.82,8.65s6.76-3.14,8.81-6.87h.1a59.71,59.71,0,0,0-.84,6.24h6.77a85.51,85.51,0,0,1,1.62-13.1l4.3-23.13Zm-3,16.83c-1.83,9.65-5.35,14.16-8.29,14.16-1.62,0-2.3-1.57-2.3-3.93,0-7.29,3.72-12,8.07-12a9.93,9.93,0,0,1,2.73.32Z"/><path class="cls-2" d="M152.24,40.69c0,5.25,2.67,8.39,6.61,8.39,4.14,0,6.66-3.09,8.65-6.82h.1a46.87,46.87,0,0,0-.83,6.19h6.71a93,93,0,0,1,1.62-13.1l2.15-11.65a24.1,24.1,0,0,0-8.91-1.46c-9.49,0-16.1,7.49-16.1,18.45m17.31-11.64c-1.74,9.54-5.09,14.16-7.87,14.16-1.62,0-2.36-1.26-2.36-3.67,0-7.18,3.78-12.17,8-12.17a9.37,9.37,0,0,1,2.47.32Z"/><path class="cls-2" d="M20.4,11.91a16.6,16.6,0,0,0-10.7,3.3C5,18.62,0,26,0,36.34,0,44,3.46,49.4,12.48,49.4a19,19,0,0,0,8.23-1.73C28.11,44.16,32.77,34.19,32.77,25c0-8.13-4.35-13.11-12.37-13.11m-.9,29.15a7.3,7.3,0,0,1-5.92,2.73c-3.67,0-5.66-1.68-5.66-6.35,0-4.87,1.94-12.89,4.82-16.67a8.13,8.13,0,0,1,6.35-3.2c4,0,5.45,2.36,5.45,5.93,0,5-1.89,13.68-5,17.56"/></svg>