<svg xmlns="http://www.w3.org/2000/svg" viewBox="0 0 320.77 63"><defs><style>.cls-1,.cls-2{fill:#7db82a;}.cls-1{fill-rule:evenodd;}.cls-3{fill:#0095c8;}</style></defs><title>Zeichenfläche 1</title><path class="cls-1" d="M261.52,34.85H245.11a1.6,1.6,0,0,0-1,.49,1.44,1.44,0,0,0-.52,1l0,12.08a2.13,2.13,0,0,0,.45.89,1.59,1.59,0,0,0,1.16.53h11.57V61.28a1.79,1.79,0,0,0,.49,1.2,1.5,1.5,0,0,0,.95.52h12.06a1.45,1.45,0,0,0,1-.49,1.55,1.55,0,0,0,.5-1.06V49.84l11.59,0a2,2,0,0,0,1.12-.5,1.53,1.53,0,0,0,.48-1.1V36.43a1.57,1.57,0,0,0-.53-1.11,1.65,1.65,0,0,0-1-.48l-11.65,0V23.17a1.78,1.78,0,0,0-.64-1.09,1.28,1.28,0,0,0-1-.44H253.77s-1.26-7.56,3.24-11.53c4.31-3.81,7.25-4.21,9.61-4.21s7.34-.24,11.47,6c3.32,5,4,9.34,6.21,9.34,2.44,0,3.64-6.19,6.69-10,1.87-2.34,4.55-5.38,10.32-5.38a14.26,14.26,0,0,1,10.48,4.45c2,2.29,3.74,5.07,3.08,10.92-.55,4.86-3.47,10-8.58,15.62-8.47,9.36-22,17.52-22,17.52l-2.76-1.51-4.24,3.61,7,4.35s15.11-8.54,24.75-18.81c6.16-6.56,10.57-13.1,11.55-20.79A18.2,18.2,0,0,0,313,3.65,20.54,20.54,0,0,0,294.49,1.2C288.1,3.43,284.28,11,284.28,11S280.83,4,274.79,1.47a20.52,20.52,0,0,0-19.91,2.69,17.93,17.93,0,0,0-6.94,12.56c-.44,6.38,1.23,9.72,1.23,9.72H267V39.62h13.18v5.46H267V58.26h-5.46V45.08H248.34V39.62h13.18Z"/><path class="cls-2" d="M183.31,50.63a4.52,4.52,0,0,1-4.49-4.55,4.45,4.45,0,0,1,4.45-4.45,4.51,4.51,0,0,1,4.55,4.45A4.56,4.56,0,0,1,183.31,50.63Z"/><path class="cls-2" d="M200.89,39.23a13.19,13.19,0,0,1-3.12-.36s-.25,1.69-.25,2.35c0,3,1.53,4.19,4.4,4.19a12.85,12.85,0,0,0,7.25-2.76l1.74,4.3a18.09,18.09,0,0,1-10.63,3.58c-6.24,0-9.92-3.28-9.92-9.61a20.84,20.84,0,0,1,5.88-14.37,12.23,12.23,0,0,1,9-3.48c5.16,0,8.89,2.05,8.89,7.16C214.13,35.19,209.59,39.23,200.89,39.23Zm3.58-11.15c-2.61,0-4.55,1.54-5.57,6.09a9.55,9.55,0,0,0,1.94.25c3,0,6.39-1,6.39-3.63C207.23,29.21,206.52,28.08,204.47,28.08Z"/><path class="cls-2" d="M235.5,29.87a12.52,12.52,0,0,0-6.39-1.79c-2.25,0-3.88.82-3.88,2.71,0,1.18.87,2,2.76,2.61l3,1.07c2.61.92,5.22,3,5.22,6.34,0,5.22-4.09,9.82-12.63,9.82a20,20,0,0,1-10.17-2.91l2.76-5a16.19,16.19,0,0,0,8.43,2.7c2.25,0,4-1.53,4-3.27,0-1.33-1.12-1.89-3.32-2.66l-2.91-1a6.65,6.65,0,0,1-4.81-6.59c0-4.5,3.43-8.95,12-8.95a16.69,16.69,0,0,1,8.64,2.35Z"/><path class="cls-3" d="M41.36,24.91h6.39a54.45,54.45,0,0,1-1.07,5.73h.1c1.69-2.81,4.25-6.39,9-6.39,4.35,0,6.29,3.37,5.16,9.46l-2.91,16.1H51.49L54.25,34c.46-2.76,0-3.93-1.69-3.93-2.66,0-6.29,3.68-8.74,17.69l-.36,2h-6.6Z"/><path class="cls-3" d="M67.83,24.91h6.4a43.61,43.61,0,0,1-1.08,5.68h.1c1.69-2.87,4.15-6.34,8.8-6.34,3.83,0,5.21,2.6,5.21,6h.1c2.1-3.27,4.66-6,8.9-6s6.29,3.17,5.11,9.76l-2.86,15.8H92l2.81-15.44c.46-2.61.26-4.29-1.64-4.29C90.38,30.08,87,34,84.6,47.77l-.35,2h-6.6l2.81-15.44c.46-2.45.26-4.29-1.68-4.29-2.66,0-6,3.83-8.49,17.69l-.36,2H63.34Z"/><path class="cls-3" d="M114.71,45.06c2.6,0,7.87-1.28,9.45-2.61l2,3.77a23.54,23.54,0,0,1-12.52,4.21c-6.29,0-9.56-4.09-9.56-10,0-9.3,6.34-16.2,14.32-16.2,4.75,0,7.61,2.35,7.61,6.44,0,6.19-6.9,8.85-15.23,9.82C110.87,43.58,112.15,45.06,114.71,45.06Zm4.9-13.6c0-1.38-.76-2.05-2.35-2.05-2.35,0-5.11,2.15-6.13,6.85C116.29,35.6,119.61,34.12,119.61,31.46Z"/><path class="cls-3" d="M128.31,42c0-10.63,6.39-17.74,15.09-17.74a13.49,13.49,0,0,1,3.27.3L148.76,13h6.65L151,37a84.61,84.61,0,0,0-1.58,12.78h-6.6a59.34,59.34,0,0,1,.82-6.08h-.1c-2,3.63-4.55,6.7-8.59,6.7S128.31,47.05,128.31,42Zm17.23-11.1.21-1.38a10,10,0,0,0-2.66-.3c-4.24,0-7.87,4.55-7.87,11.65,0,2.31.66,3.84,2.25,3.84C140.33,44.7,143.75,40.3,145.54,30.89Z"/><path class="cls-3" d="M154,42.25c0-10.69,6.44-18,15.69-18a23.5,23.5,0,0,1,8.7,1.43L176.25,37a91.31,91.31,0,0,0-1.59,12.78h-6.54a44.47,44.47,0,0,1,.82-6h-.1c-2,3.63-4.4,6.65-8.44,6.65C156.56,50.43,154,47.36,154,42.25Zm16.87-11.36.2-1.32a8.85,8.85,0,0,0-2.4-.31c-4.09,0-7.77,4.86-7.77,11.86,0,2.35.72,3.58,2.3,3.58C165.87,44.7,169.14,40.2,170.83,30.89Z"/><path class="cls-3" d="M25.19,49.18a18.54,18.54,0,0,1-8,1.69C8.37,50.87,5,45.55,5,38.14c0-10.07,4.86-17.28,9.46-20.61a16.17,16.17,0,0,1,10.43-3.22C32.71,14.31,37,19.17,37,27.09,37,36,32.41,45.75,25.19,49.18ZM23.61,19.83A8,8,0,0,0,17.42,23c-2.81,3.68-4.7,11.5-4.7,16.26,0,4.55,1.94,6.19,5.52,6.19A7.17,7.17,0,0,0,24,42.74c3.07-3.78,4.91-12.22,4.91-17.13C28.93,22.13,27.5,19.83,23.61,19.83Z"/></svg>