<svg xmlns="http://www.w3.org/2000/svg" viewBox="0 0 248.99 57.17"><defs><style>.cls-1{fill:#7db82a;fill-rule:evenodd;}.cls-2,.cls-3{fill:#0095c8;}.cls-3{font-size:12px;font-family:SegoePrint, Segoe Print;}.cls-4{letter-spacing:-0.01em;}.cls-5{letter-spacing:0.2em;}.cls-6{letter-spacing:-0.05em;}.cls-7{letter-spacing:0em;}</style></defs><title>Zeichenfläche 1</title><path class="cls-1" d="M197.15,30.49H182.79a1.41,1.41,0,0,0-.86.43,1.26,1.26,0,0,0-.45.87l0,10.57a1.85,1.85,0,0,0,.4.77,1.37,1.37,0,0,0,1,.47H193v10a1.58,1.58,0,0,0,.43,1.06,1.31,1.31,0,0,0,.83.45H204.8a1.24,1.24,0,0,0,.86-.42,1.38,1.38,0,0,0,.44-.94V43.61l10.13,0a1.79,1.79,0,0,0,1-.43,1.37,1.37,0,0,0,.43-1l0-10.31a1.35,1.35,0,0,0-.46-1,1.39,1.39,0,0,0-.88-.42H206.1V20.27a1.55,1.55,0,0,0-.56-.95,1.09,1.09,0,0,0-.86-.38H190.37s-1.1-6.62,2.83-10.1c3.77-3.33,6.35-3.68,8.41-3.68s6.42-.21,10,5.28c2.9,4.39,3.5,8.17,5.43,8.17,2.14,0,3.19-5.42,5.85-8.74,1.64-2,4-4.71,9-4.71a12.45,12.45,0,0,1,9.17,3.9c1.75,2,3.28,4.43,2.7,9.55-.48,4.25-3,8.73-7.51,13.67-7.41,8.19-19.24,15.33-19.24,15.33l-2.42-1.32L211,49.44l6.12,3.81s13.22-7.47,21.65-16.45c5.4-5.75,9.26-11.47,10.12-18.2a16,16,0,0,0-6.68-15.41A18,18,0,0,0,226,1.05c-5.59,2-8.94,8.53-8.94,8.53s-3-6.08-8.3-8.29a18,18,0,0,0-17.42,2.35,15.67,15.67,0,0,0-6.07,11c-.39,5.58,1.07,8.51,1.07,8.51h15.59V34.67h11.53v4.78H201.93V51h-4.78V39.45H185.61V34.67h11.54Z"/><path class="cls-2" d="M52.13,12.1c-4.93,0-7.55,3.67-9.28,6.55h-.11a56.88,56.88,0,0,0,1.11-5.87H37.29L32.68,38.32h6.76l.37-2.1c2.51-14.37,6.24-18.14,9-18.14,1.67,0,2.2,1.2,1.72,4L47.67,38.32h6.77l3-16.52c1.15-6.24-.84-9.7-5.3-9.7"/><path class="cls-2" d="M93.07,12.24c-4.36,0-7,2.83-9.13,6.18h-.1c0-3.51-1.42-6.18-5.35-6.18-4.77,0-7.29,3.56-9,6.5h-.1a44.33,44.33,0,0,0,1.1-5.82H63.91L59.3,38.45h6.76l.37-2.09c2.52-14.21,6-18.15,8.7-18.15,2,0,2.21,1.89,1.73,4.41L74,38.45h6.77l.36-2.09C83.57,22.25,87,18.21,89.87,18.21c1.94,0,2.15,1.73,1.68,4.41L88.66,38.45h6.71l2.94-16.2c1.21-6.76-.89-10-5.24-10"/><path class="cls-2" d="M112,33.58c-2.62,0-3.93-1.52-4-4.67,8.55-1,15.63-3.72,15.63-10.07,0-4.19-2.94-6.6-7.81-6.6-8.18,0-14.68,7.07-14.68,16.62,0,6,3.35,10.22,9.8,10.22,5.63,0,10.57-2.1,12.84-4l-2.09-4.68A16.43,16.43,0,0,1,112,33.58m2.62-16c1.63,0,2.42.68,2.42,2.1,0,2.73-3.41,4.25-8.71,4.93,1-4.83,3.88-7,6.29-7"/><path class="cls-2" d="M146.59,2.22l-1.82,10.33a13.48,13.48,0,0,0-3.36-.31c-8.92,0-15.47,7.29-15.47,18.19,0,5.19,2.57,8.65,6.82,8.65s6.76-3.14,8.81-6.87h.1a59.71,59.71,0,0,0-.84,6.24h6.77a85.51,85.51,0,0,1,1.62-13.1l4.3-23.13Zm-3,16.83c-1.83,9.65-5.35,14.16-8.29,14.16-1.62,0-2.3-1.57-2.3-3.93,0-7.29,3.72-12,8.07-12a9.93,9.93,0,0,1,2.73.32Z"/><path class="cls-2" d="M152.24,30.69c0,5.25,2.67,8.39,6.61,8.39,4.14,0,6.66-3.09,8.65-6.82h.1a46.87,46.87,0,0,0-.83,6.19h6.71a93,93,0,0,1,1.62-13.1l2.15-11.65a24.1,24.1,0,0,0-8.91-1.46c-9.49,0-16.1,7.49-16.1,18.45m17.31-11.64c-1.74,9.54-5.09,14.16-7.87,14.16-1.62,0-2.36-1.26-2.36-3.67,0-7.18,3.78-12.17,8-12.17a9.37,9.37,0,0,1,2.47.32Z"/><path class="cls-2" d="M20.4,1.91A16.6,16.6,0,0,0,9.7,5.21C5,8.62,0,16,0,26.34,0,34,3.46,39.4,12.48,39.4a19,19,0,0,0,8.23-1.73C28.11,34.16,32.77,24.19,32.77,15c0-8.13-4.35-13.11-12.37-13.11m-.9,29.15a7.3,7.3,0,0,1-5.92,2.73c-3.67,0-5.66-1.68-5.66-6.35,0-4.87,1.94-12.89,4.82-16.67a8.13,8.13,0,0,1,6.35-3.2c4,0,5.45,2.36,5.45,5.93,0,5-1.89,13.68-5,17.56"/><text class="cls-3" transform="translate(1 53.81)"><tspan class="cls-4">S</tspan><tspan x="7.55" y="0">ant</tspan><tspan class="cls-5" x="28.17" y="0">é.</tspan><tspan x="42.22" y="0">Bie</tspan><tspan class="cls-6" x="60.75" y="0">n</tspan><tspan x="68.1" y="0">-êt</tspan><tspan class="cls-7" x="87.66" y="0">r</tspan><tspan class="cls-5" x="93.83" y="0">e.</tspan><tspan x="107.88" y="0">Innovation</tspan></text></svg>