<svg xmlns="http://www.w3.org/2000/svg" viewBox="0 0 320.77 64.83"><defs><style>.cls-1,.cls-3{fill:#7db82a;}.cls-1{fill-rule:evenodd;}.cls-2{fill:#0095c8;}</style></defs><title>Zeichenfläche 1</title><path class="cls-1" d="M261.52,34.85H245.11a1.6,1.6,0,0,0-1,.49,1.45,1.45,0,0,0-.52,1l0,12.07a2.13,2.13,0,0,0,.45.89,1.59,1.59,0,0,0,1.16.53l11.57,0V61.27a1.81,1.81,0,0,0,.49,1.21,1.45,1.45,0,0,0,.95.51h12.06a1.4,1.4,0,0,0,1-.48,1.55,1.55,0,0,0,.5-1.06V49.85l11.59,0a2,2,0,0,0,1.12-.5,1.51,1.51,0,0,0,.48-1.09V36.43a1.56,1.56,0,0,0-.53-1.11,1.65,1.65,0,0,0-1-.48l-11.65,0V23.17a1.78,1.78,0,0,0-.64-1.09,1.28,1.28,0,0,0-1-.44H253.77s-1.26-7.57,3.24-11.53c4.31-3.81,7.25-4.21,9.61-4.21s7.34-.24,11.47,6c3.32,5,4,9.34,6.21,9.34,2.44,0,3.64-6.19,6.69-10,1.87-2.34,4.55-5.38,10.32-5.38a14.26,14.26,0,0,1,10.48,4.45c2,2.29,3.74,5.07,3.08,10.92-.55,4.86-3.47,10-8.58,15.62-8.47,9.36-22,17.52-22,17.52l-2.76-1.51-4.24,3.61,7,4.35s15.11-8.54,24.75-18.81c6.16-6.57,10.57-13.1,11.55-20.79A18.2,18.2,0,0,0,313,3.65,20.54,20.54,0,0,0,294.49,1.2C288.1,3.43,284.28,11,284.28,11S280.83,4,274.79,1.47a20.52,20.52,0,0,0-19.91,2.69,17.93,17.93,0,0,0-6.94,12.56c-.44,6.38,1.23,9.72,1.23,9.72H267V39.62h13.18v5.46H267V58.26h-5.46V45.08H248.34V39.62h13.18Z"/><path class="cls-2" d="M100.29,50.24c-.37-.13-.56-.47-.56-1s.86-.83,2.58-1.23a20.39,20.39,0,0,1,4.51-.6,5.74,5.74,0,0,1,3.38.88,2.72,2.72,0,0,1,1.25,2.33,4.8,4.8,0,0,1-2.38,3.87A16.45,16.45,0,0,1,102.66,57a3.28,3.28,0,0,0-1.2.36,6,6,0,0,0-.2,1.73c-.05,1.07-.07,1.81-.07,2.23a1.29,1.29,0,0,1-.28.79.83.83,0,0,1-.65.35c-.58,0-.86-.39-.86-1.16,0-.43.12-1.61.35-3.54l.69-5.79a5.48,5.48,0,0,0,0-.84A1.66,1.66,0,0,0,100.29,50.24Zm2-.56a8.41,8.41,0,0,0-.14,1c-.09.9-.2,1.9-.34,3q-.11.85-.21,1.86a16.5,16.5,0,0,0,5.71-1.79c1.66-.91,2.49-1.9,2.49-3,0-1.33-1-2-3.09-2A13.26,13.26,0,0,0,102.32,49.68Z"/><path class="cls-2" d="M119.59,58.28A12,12,0,0,1,116.88,61a4.46,4.46,0,0,1-2.45.92,1.66,1.66,0,0,1-1.3-.64,2.41,2.41,0,0,1-.54-1.63,9.27,9.27,0,0,1,2.29-5.53q2.3-3,4.56-3a1.3,1.3,0,0,1,1.22.94.44.44,0,0,0,.4.31q.78,0,.78.6a5.13,5.13,0,0,1-.09.83,25.44,25.44,0,0,0-.53,4.07c0,1.57.3,2.52.9,2.83a.68.68,0,0,1,.43.57.8.8,0,0,1-.42.61,1.35,1.35,0,0,1-.81.31c-.51,0-.92-.34-1.24-1A7,7,0,0,1,119.59,58.28Zm-.6-5.5c-.86,0-1.86.81-3,2.42a7.51,7.51,0,0,0-1.7,4c0,.74.24,1.12.74,1.12.71,0,1.71-.72,3-2.17a6.29,6.29,0,0,0,1.9-4C119.91,53.25,119.6,52.78,119,52.78Z"/><path class="cls-2" d="M126.88,58c.06-.12.14-.28.23-.49a17.21,17.21,0,0,1,1.22-2.39,15.15,15.15,0,0,1,1.23-1.66,8,8,0,0,1,1.22-1.2,4.22,4.22,0,0,1,1-.57,2.51,2.51,0,0,1,.87-.16A1.91,1.91,0,0,1,134,52a1.61,1.61,0,0,1,.54,1.2.88.88,0,0,1-.19.55.7.7,0,0,1-.58.24,1,1,0,0,1-.75-.36,1,1,0,0,0-.73-.36q-1,0-2.82,2.46a11.72,11.72,0,0,0-2.18,5.42,1.6,1.6,0,0,1-.38,1,1.07,1.07,0,0,1-.77.25c-.32,0-.55-.24-.69-.71a9.61,9.61,0,0,1-.21-2.41c0-.3,0-1,0-2a25,25,0,0,1,.24-3c0-.12,0-.41.1-.87a4.45,4.45,0,0,1,.17-1,1.25,1.25,0,0,1,.42-.55,1.07,1.07,0,0,1,.69-.25.65.65,0,0,1,.54.23.78.78,0,0,1,.18.49,4.4,4.4,0,0,1-.2,1.08,7.19,7.19,0,0,0-.26,1.06,6.15,6.15,0,0,1-.11.69,19.08,19.08,0,0,0-.19,2.21V58Z"/><path class="cls-2" d="M141.83,58.28a12,12,0,0,1-2.7,2.75,4.48,4.48,0,0,1-2.45.92,1.63,1.63,0,0,1-1.3-.64,2.37,2.37,0,0,1-.55-1.63,9.27,9.27,0,0,1,2.29-5.53q2.3-3,4.56-3a1.31,1.31,0,0,1,1.23.94.42.42,0,0,0,.4.31q.78,0,.78.6a4.35,4.35,0,0,1-.1.83,26.69,26.69,0,0,0-.53,4.07c0,1.57.3,2.52.9,2.83a.66.66,0,0,1,.43.57.8.8,0,0,1-.42.61,1.35,1.35,0,0,1-.81.31c-.5,0-.92-.34-1.24-1A7,7,0,0,1,141.83,58.28Zm-.59-5.5c-.86,0-1.86.81-3,2.42a7.54,7.54,0,0,0-1.71,4c0,.74.25,1.12.74,1.12.72,0,1.71-.72,3-2.17a6.29,6.29,0,0,0,1.9-4C142.15,53.25,141.85,52.78,141.24,52.78Z"/><path class="cls-2" d="M159.28,52c.67,0,1.3-.12,1.89-.19s1.08-.09,1.47-.09a2,2,0,0,1,.94.13.54.54,0,0,1,.19.48c0,.53-.37.81-1.1.86q-1.41.09-2.61.24a4.46,4.46,0,0,0-1.28.26,18.28,18.28,0,0,0-.59,2.33,16.76,16.76,0,0,0-.5,2.88,2.45,2.45,0,0,0,.28,1.43,1,1,0,0,0,.85.36,4.27,4.27,0,0,0,2.33-1.26,1.73,1.73,0,0,1,.89-.52q.42,0,.42.45c0,.47-.45,1.08-1.35,1.82a4.29,4.29,0,0,1-2.77,1.12c-1.57,0-2.36-.93-2.36-2.78a15.24,15.24,0,0,1,.49-3.12,18.55,18.55,0,0,0,.48-2.52c0-.09-.08-.14-.24-.14l-1,.09c-.84,0-1.25-.34-1.25-1a.5.5,0,0,1,.57-.57h2a.45.45,0,0,0,.36-.18,4.6,4.6,0,0,0,.46-1.25c.21-.7.38-1.4.54-2.09s.46-1,.92-1A.79.79,0,0,1,160,48a.91.91,0,0,1,.24.55,14.06,14.06,0,0,1-.35,1.4Z"/><path class="cls-2" d="M171.73,57.58a13.59,13.59,0,0,1-2.55,3.26A3.9,3.9,0,0,1,166.74,62a1.84,1.84,0,0,1-1.31-.75,3.45,3.45,0,0,1-.67-2.32,17.36,17.36,0,0,1,.62-3.77,14.42,14.42,0,0,0,.51-2.92.93.93,0,0,1,.89-.58.79.79,0,0,1,.66.29.92.92,0,0,1,.24.6,6,6,0,0,1-.48,1.94,12.56,12.56,0,0,0-.9,4.21c0,1.07.24,1.6.74,1.6s1.43-.54,2.41-1.61A13.5,13.5,0,0,0,172,54.19a6.59,6.59,0,0,1,.67-1.5.82.82,0,0,1,.7-.35c.44,0,.66.29.66.88a4.44,4.44,0,0,1-.18.71,15,15,0,0,0-.59,4c0,1.52.25,2.5.75,3,.26.25.39.44.39.59s-.13.35-.39.5a1.51,1.51,0,0,1-.72.22c-.46,0-.82-.34-1.11-1a8.51,8.51,0,0,1-.41-3v-.65Z"/><path class="cls-2" d="M190.27,59.6c0-.43-.52-.91-1.56-1.45A14.73,14.73,0,0,1,186,56.52a1.78,1.78,0,0,1-.69-1.36,3.78,3.78,0,0,1,1.94-3.22,6.37,6.37,0,0,1,3.18-1.28,1.93,1.93,0,0,1,1.15.27,1.13,1.13,0,0,1,.36,1,.66.66,0,0,1-.26.52.75.75,0,0,1-.41.21,1.48,1.48,0,0,1-.42-.14,1.45,1.45,0,0,0-.41-.14,6.41,6.41,0,0,0-2,.71c-1,.48-1.49,1-1.49,1.61a1.29,1.29,0,0,0,.52,1,9.71,9.71,0,0,0,1.9,1.08,7.65,7.65,0,0,1,1.76,1.13,1.85,1.85,0,0,1,.66,1.41c0,1-.69,1.78-2.06,2.34a10.26,10.26,0,0,1-3.94.85c-1.05,0-1.58-.36-1.58-1.08a.57.57,0,0,1,.36-.54,1.6,1.6,0,0,1,.72-.18,2.66,2.66,0,0,1,.55.1,3.78,3.78,0,0,0,.53.1,8,8,0,0,0,2.32-.37A2.54,2.54,0,0,0,190.27,59.6Z"/><path class="cls-2" d="M200.58,58.28a12,12,0,0,1-2.7,2.75,4.46,4.46,0,0,1-2.45.92,1.65,1.65,0,0,1-1.3-.64,2.42,2.42,0,0,1-.55-1.63,9.28,9.28,0,0,1,2.3-5.53q2.3-3,4.56-3a1.31,1.31,0,0,1,1.22.94.43.43,0,0,0,.4.31q.78,0,.78.6a4.35,4.35,0,0,1-.1.83,26.31,26.31,0,0,0-.52,4.07c0,1.57.3,2.52.89,2.83a.66.66,0,0,1,.43.57.8.8,0,0,1-.42.61,1.35,1.35,0,0,1-.81.31c-.5,0-.91-.34-1.24-1A7.21,7.21,0,0,1,200.58,58.28Zm-.59-5.5c-.86,0-1.86.81-3,2.42a7.54,7.54,0,0,0-1.71,4c0,.74.25,1.12.74,1.12.72,0,1.71-.72,3-2.17a6.31,6.31,0,0,0,1.91-4C200.91,53.25,200.6,52.78,200,52.78Z"/><path class="cls-2" d="M209.32,45.3c.47,0,.7.3.7.9a19.78,19.78,0,0,1-.85,3.81,28.88,28.88,0,0,0-.83,4.18,30.84,30.84,0,0,0-.29,3.58,26.31,26.31,0,0,0,.2,3.2,3.28,3.28,0,0,1,0,.44,1.17,1.17,0,0,1-.33.84,1,1,0,0,1-.7.35c-.35,0-.59-.21-.72-.64a7.84,7.84,0,0,1-.2-2.08,51.54,51.54,0,0,1,.79-8.11,26.57,26.57,0,0,1,1.25-5.65C208.69,45.57,209,45.3,209.32,45.3Z"/><path class="cls-2" d="M218.68,57.58a13.85,13.85,0,0,1-2.56,3.26A3.86,3.86,0,0,1,213.69,62a1.86,1.86,0,0,1-1.32-.75,3.45,3.45,0,0,1-.66-2.32,17.2,17.2,0,0,1,.61-3.77,14.66,14.66,0,0,0,.52-2.92.93.93,0,0,1,.89-.58.78.78,0,0,1,.65.29.93.93,0,0,1,.25.6,6,6,0,0,1-.48,1.94,12.36,12.36,0,0,0-.91,4.21c0,1.07.24,1.6.74,1.6s1.44-.54,2.41-1.61a13.33,13.33,0,0,0,2.51-4.49,7.08,7.08,0,0,1,.67-1.5.84.84,0,0,1,.7-.35c.44,0,.66.29.66.88a4.44,4.44,0,0,1-.18.71,15.43,15.43,0,0,0-.59,4c0,1.52.25,2.5.75,3,.26.25.4.44.4.59s-.14.35-.4.5a1.48,1.48,0,0,1-.72.22c-.46,0-.82-.34-1.1-1a8.25,8.25,0,0,1-.42-3v-.32C218.67,57.8,218.67,57.69,218.68,57.58Z"/><path class="cls-2" d="M231.14,57.79A12.16,12.16,0,0,1,228.37,61a4.53,4.53,0,0,1-2.7,1.13,1.79,1.79,0,0,1-1.5-.72,3.19,3.19,0,0,1-.55-1.94,8.33,8.33,0,0,1,2-5.07q2-2.59,4.33-2.6a2.64,2.64,0,0,1,1.89.87l1.36-6.39a1.27,1.27,0,0,1,.54-.87,1.47,1.47,0,0,1,.63-.23c.45,0,.68.4.68,1.21a9.91,9.91,0,0,1-.45,1.6,45.42,45.42,0,0,0-1.35,5.28,26.15,26.15,0,0,0-.64,5c0,1.3.28,2,.85,2a2.17,2.17,0,0,0,1.13-.36.77.77,0,0,1,.46-.18c.21,0,.31.14.31.41s-.29.72-.87,1.16a3,3,0,0,1-1.79.65c-1.08,0-1.62-1-1.62-3.11C231.09,58.5,231.11,58.15,231.14,57.79Zm-1.28-4.57c-1.05,0-2.1.71-3.13,2.14a6.88,6.88,0,0,0-1.55,4c0,.82.27,1.22.81,1.22a3.34,3.34,0,0,0,1.85-.8,9.92,9.92,0,0,0,2.24-2.55,5.66,5.66,0,0,0,1.15-2.63,1.37,1.37,0,0,0-.4-.89A1.23,1.23,0,0,0,229.86,53.22Z"/><path class="cls-3" d="M183.31,39a4.51,4.51,0,0,1-4.49-4.55A4.44,4.44,0,0,1,183.27,30a4.51,4.51,0,0,1,4.55,4.44A4.55,4.55,0,0,1,183.31,39Z"/><path class="cls-3" d="M200.89,27.56a13.19,13.19,0,0,1-3.12-.36s-.25,1.69-.25,2.36c0,3,1.53,4.19,4.4,4.19A12.93,12.93,0,0,0,209.17,31l1.74,4.29a18,18,0,0,1-10.63,3.58c-6.24,0-9.92-3.27-9.92-9.61a20.86,20.86,0,0,1,5.88-14.37,12.22,12.22,0,0,1,9-3.47c5.16,0,8.89,2,8.89,7.15S209.59,27.56,200.89,27.56Zm3.58-11.14c-2.61,0-4.55,1.53-5.57,6.08a9.2,9.2,0,0,0,1.94.26c3,0,6.39-1,6.39-3.63C207.23,17.54,206.52,16.42,204.47,16.42Z"/><path class="cls-3" d="M235.5,18.21a12.52,12.52,0,0,0-6.39-1.79c-2.25,0-3.88.82-3.88,2.71,0,1.17.87,1.94,2.76,2.6l3,1.08c2.61.92,5.22,3,5.22,6.34,0,5.21-4.09,9.81-12.63,9.81a19.85,19.85,0,0,1-10.17-2.91l2.76-5a16.2,16.2,0,0,0,8.43,2.71c2.25,0,4-1.54,4-3.27,0-1.33-1.12-1.9-3.32-2.66l-2.91-1a6.66,6.66,0,0,1-4.81-6.6c0-4.5,3.43-8.95,12-8.95a16.69,16.69,0,0,1,8.64,2.35Z"/><path class="cls-2" d="M41.36,13.25h6.39A53.82,53.82,0,0,1,46.68,19h.1c1.69-2.81,4.25-6.39,9-6.39C60.18,12.58,62.12,16,61,22L58.08,38.15H51.49l2.76-15.8c.46-2.76,0-3.94-1.69-3.94-2.66,0-6.29,3.68-8.74,17.69l-.36,2h-6.6Z"/><path class="cls-2" d="M67.83,13.25h6.4a43.17,43.17,0,0,1-1.08,5.67h.1c1.69-2.86,4.14-6.34,8.8-6.34,3.83,0,5.21,2.61,5.21,6h.1c2.1-3.27,4.66-6,8.9-6s6.29,3.17,5.11,9.77l-2.86,15.8H92l2.81-15.44c.46-2.61.26-4.3-1.64-4.3-2.76,0-6.13,3.94-8.54,17.69l-.35,2h-6.6l2.81-15.44c.46-2.46.26-4.3-1.68-4.3-2.66,0-6,3.84-8.49,17.69l-.36,2H63.34Z"/><path class="cls-2" d="M114.71,33.39c2.6,0,7.87-1.28,9.45-2.61l2,3.78a23.62,23.62,0,0,1-12.52,4.2c-6.29,0-9.56-4.09-9.56-10,0-9.31,6.34-16.21,14.32-16.21,4.75,0,7.61,2.35,7.61,6.44,0,6.19-6.9,8.85-15.23,9.82C110.87,31.91,112.15,33.39,114.71,33.39Zm4.9-13.6c0-1.38-.76-2.05-2.35-2.05-2.35,0-5.11,2.15-6.13,6.86C116.29,23.93,119.61,22.45,119.61,19.79Z"/><path class="cls-2" d="M128.31,30.32c0-10.63,6.39-17.74,15.09-17.74a13.33,13.33,0,0,1,3.27.31l2.09-11.56h6.65l-4.4,24a84.33,84.33,0,0,0-1.58,12.78h-6.6a59.16,59.16,0,0,1,.82-6.09h-.1c-2,3.63-4.55,6.7-8.59,6.7S128.31,35.38,128.31,30.32Zm17.23-11.09.21-1.38a9.94,9.94,0,0,0-2.66-.31c-4.24,0-7.87,4.55-7.87,11.66,0,2.3.66,3.83,2.25,3.83C140.33,33,143.75,28.64,145.54,19.23Z"/><path class="cls-2" d="M154,30.58c0-10.69,6.44-18,15.69-18a23.5,23.5,0,0,1,8.7,1.43l-2.1,11.36a91,91,0,0,0-1.59,12.78h-6.54a44.41,44.41,0,0,1,.82-6h-.1c-2,3.63-4.4,6.65-8.44,6.65C156.56,38.76,154,35.69,154,30.58Zm16.87-11.35.2-1.33a8.91,8.91,0,0,0-2.4-.3c-4.09,0-7.77,4.85-7.77,11.85,0,2.36.72,3.58,2.3,3.58C165.87,33,169.14,28.53,170.83,19.23Z"/><path class="cls-2" d="M25.19,37.52a18.53,18.53,0,0,1-8,1.68C8.37,39.2,5,33.88,5,26.47,5,16.4,9.86,9.19,14.46,5.87A16.11,16.11,0,0,1,24.89,2.65C32.71,2.65,37,7.5,37,15.43,37,24.37,32.41,34.09,25.19,37.52ZM23.61,8.17a7.92,7.92,0,0,0-6.19,3.12c-2.81,3.68-4.7,11.5-4.7,16.25,0,4.56,1.94,6.19,5.52,6.19A7.14,7.14,0,0,0,24,31.07c3.07-3.78,4.91-12.22,4.91-17.13C28.93,10.47,27.5,8.17,23.61,8.17Z"/></svg>