<?xml version="1.0" standalone="no"?>
<!DOCTYPE svg PUBLIC "-//W3C//DTD SVG 20010904//EN"
 "http://www.w3.org/TR/2001/REC-SVG-20010904/DTD/svg10.dtd">
<svg version="1.0" xmlns="http://www.w3.org/2000/svg"
 width="292.000000pt" height="292.000000pt" viewBox="0 0 292.000000 292.000000"
 preserveAspectRatio="xMidYMid meet">
<metadata>
Created by potrace 1.11, written by Peter Selinger 2001-2013
</metadata>
<g transform="translate(0.000000,292.000000) scale(0.100000,-0.100000)"
fill="#000000" stroke="none">
<path d="M815 2633 c-280 -54 -469 -187 -567 -401 -71 -155 -81 -369 -26 -549
l10 -33 334 0 c184 0 334 -3 335 -7 0 -5 1 -116 2 -248 l2 -240 245 1 245 0 0
-101 0 -100 -247 -3 -246 -2 0 -239 c0 -131 -2 -243 -5 -247 -6 -10 -185 -10
-194 0 -3 3 -6 114 -6 246 l1 240 -247 2 -246 3 0 100 0 100 240 0 c135 -1
243 3 246 8 4 5 7 45 7 87 0 65 -2 79 -16 82 -9 2 -153 4 -319 3 -272 0 -305
-2 -320 -18 -15 -15 -17 -44 -17 -263 0 -302 -11 -282 157 -283 61 0 163 0
225 0 l113 -1 -1 -152 c-2 -297 -2 -296 20 -318 19 -19 33 -20 260 -20 227 0
241 1 260 20 19 19 20 33 20 245 l0 225 23 0 c12 1 113 1 224 1 181 0 205 2
225 19 22 18 23 20 22 266 l0 247 -24 16 c-20 13 -60 16 -244 16 l-221 0 -2
190 c-1 105 -2 206 -3 226 0 19 -6 44 -14 55 -14 18 -32 19 -338 24 l-323 5 1
100 c1 190 69 309 234 409 82 50 144 68 245 72 247 9 375 -88 539 -411 76
-150 96 -172 144 -154 35 14 56 42 113 159 154 312 299 422 539 407 142 -9
253 -59 350 -158 97 -99 132 -198 126 -364 -4 -110 -24 -182 -82 -298 -114
-227 -373 -501 -709 -750 -49 -37 -94 -70 -100 -75 -5 -4 -65 -45 -133 -90
l-124 -81 -37 24 c-21 13 -45 25 -54 27 -8 2 -39 -17 -68 -42 -29 -25 -64 -54
-77 -65 l-24 -21 132 -81 132 -82 61 38 c328 201 602 408 800 605 61 61 130
134 152 161 22 27 48 59 58 70 11 11 52 70 93 131 128 191 193 375 198 559 10
343 -231 633 -583 699 -42 8 -116 13 -170 11 -175 -5 -302 -54 -419 -161 -69
-63 -182 -208 -182 -236 -1 -13 -50 40 -50 54 0 15 -88 123 -136 169 -96 90
-192 139 -319 164 -37 8 -213 14 -240 8z"/>
</g>
</svg>
